PathFileType	4	(X/Y/Z)	Patient5_TMGait_0pt45_1_left_05.trc.trc
DataRate	CameraRate	NumFrames	NumMarkers	Units	OrigDataRate	OrigDataStartFrame	OrigNumFrames
57.851239669421	57.851239669421	5	32	mm	57.851239669421	89	       141
Frame#	Time	R.ASIS			L.ASIS			Chest			R.Shoulder			Neck			L.Shoulder			L.Elbow			L.Wrist			R.Elbow			R.Wrist			L.Thigh.Superior			L.Thigh.Lateral			L.Thigh.Inferior			L.Patella			L.Shank.Superior			L.Shank.Lateral			L.Shank.Inferior			L.Heel			L.Midfoot.Lateral			L.Midfoot.Superior			L.Toe			R.Thigh.Superior			R.Thigh.Lateral			R.Thigh.Inferior			R.Patella			R.Shank.Superior			R.Shank.Lateral			R.Shank.Inferior			R.Heel			R.Midfoot.Lateral			R.Midfoot.Superior			R.Toe			
		X1	Y1	Z1	X2	Y2	Z2	X3	Y3	Z3	X4	Y4	Z4	X5	Y5	Z5	X6	Y6	Z6	X7	Y7	Z7	X8	Y8	Z8	X9	Y9	Z9	X10	Y10	Z10	X11	Y11	Z11	X12	Y12	Z12	X13	Y13	Z13	X14	Y14	Z14	X15	Y15	Z15	X16	Y16	Z16	X17	Y17	Z17	X18	Y18	Z18	X19	Y19	Z19	X20	Y20	Z20	X21	Y21	Z21	X22	Y22	Z22	X23	Y23	Z23	X24	Y24	Z24	X25	Y25	Z25	X26	Y26	Z26	X27	Y27	Z27	X28	Y28	Z28	X29	Y29	Z29	X30	Y30	Z30	X31	Y31	Z31	X32	Y32	Z32	

89	8.321142857143	942.803508074841	974.180179452221	535.640839220564	921.098860678438	950.717389475620	293.771657099272	977.986506124027	1427.946233332264	435.240813794773	874.544677858125	1484.300441350231	603.359550631945	850.571531123087	1546.957570660831	421.270698377477	915.380969259914	1496.637095580273	239.829406468535	851.666224935557	1180.051077928701	98.833269162974	976.155974585363	921.328900207754	88.243052883955	779.360469201858	1166.471383104265	738.247855870600	984.630339399530	968.299080052422	684.511742766206	894.252110024929	722.557137364303	292.391930010263	798.051331842214	669.213727808703	261.549613714069	858.508960345381	595.736614959332	315.275508513474	817.287341606402	478.784414998151	321.765341484246	748.879832862143	392.061924116843	350.605243826473	655.719318667927	345.722076509074	282.730340432242	686.835476674400	282.320495184764	366.411335474322	500.921570600528	72.479368072586	379.070797511895	585.576704431747	38.943048956859	318.369209760395	687.562947134981	91.433134182720	355.618782769609	788.058096594884	44.206926792904	362.459723081669	996.120632721899	751.405945154641	558.312995947806	932.848389230819	660.680479924063	617.948267278317	1019.335681605952	626.500286198139	540.416801054959	1043.472398767707	531.551808501800	573.287549555111	1017.160063275474	425.026824293606	535.958566865492	951.675448893281	346.494740461952	613.712949375190	1017.446973287288	284.527129568307	533.663771607124	924.829774899057	55.076462198355	496.279631815697	1004.902811603052	22.840488194395	567.050468412389	1105.874164743487	96.609536807942	553.764090302533	1212.228151959847	58.882468814643	549.375645262416	
90	8.338428571429	945.618311715022	971.204979972860	538.542453905852	922.958534574473	949.433470835426	296.979970824236	980.159912913909	1426.530448543949	438.779658383663	878.802505184638	1482.151419833217	608.329587437673	852.216271566134	1545.390578355529	426.568314059799	913.986384223381	1495.297002571980	244.038814222411	845.409769393160	1179.995876228525	102.615407856290	966.533690537351	920.002100982601	86.639487749590	787.365405986884	1162.962412203273	743.049551617660	992.040039925623	965.065727049052	686.104257018575	896.436069148624	721.377000189001	294.518269623855	800.245454702172	667.986409876565	263.516488156925	861.148661962821	594.374109010198	316.644772750223	819.228838328286	475.632164961692	322.402542904953	748.790587399758	390.104021348102	351.108820345158	654.630208096137	345.953087285000	283.060089929016	684.110278899555	281.907210589381	366.838640081720	493.842569407561	75.316879862003	378.942533470719	578.219463791504	40.537830386107	318.354592097062	680.833159287889	91.687319635467	355.377211428870	780.326100769365	44.173186509311	362.378206269761	996.596977343419	747.787848970022	560.198157053428	931.965058891704	657.509642270319	618.759071527866	1018.409444275613	622.970155800375	541.120583244511	1041.201180353098	527.397222030330	572.656325740717	1014.024861033149	421.631728834673	534.489760168928	948.498389964310	343.179842038486	612.233520952860	1013.184576341398	281.179017441593	531.318556286853	918.338570078869	52.749422943813	493.302394278392	997.680899670348	21.893272021343	565.233999251271	1099.852949805980	93.274775406497	549.138727007080	1205.723862670586	53.477366988578	546.140204233933	
91	8.355714285714	948.010405598763	969.115926137323	541.809765182275	924.860752888437	948.768703751791	300.513464416678	982.608502398200	1425.697170895161	442.529353085715	883.248472200298	1480.748818095211	613.318501328275	854.367156813630	1544.582921716248	431.834581257883	913.225721896569	1494.623945507477	248.395835431872	839.256860425516	1180.587548711470	107.106637772925	956.704129599570	919.377206048145	85.511490994437	795.885921713351	1160.094369029691	747.695239325843	999.741264930950	962.260649857041	687.572764220283	899.389189830668	720.861346884277	296.932565206804	803.580180790229	667.114355024934	265.363520923972	865.018453826043	593.552390921026	318.052406722232	822.803553967732	472.561476056183	322.640456198598	750.022716964015	388.380235131046	351.185924731205	654.844715178864	346.637767247125	282.975931852347	682.476078203707	282.038372663953	366.992641814156	487.310528199234	79.514273054307	378.624205043901	571.169777154956	42.765708312208	318.270088465502	674.746942484529	91.962347971326	354.950797186206	772.690575080659	44.117222993947	362.316710042813	997.670351788283	745.861604693378	562.823190368195	932.271380839807	655.757170855351	620.157422619147	1018.900827900595	621.164916346648	542.615858901133	1040.526580870411	524.844251713481	572.823750544961	1012.034425884577	419.533577136425	533.868486364691	946.398315229842	341.410283658183	611.813664761997	1009.472105514997	279.146418867668	529.797742655242	911.425588194598	51.600195109313	491.304449516539	990.212872475179	21.925143246015	564.139441960751	1093.513214221277	91.104430930726	545.494837687610	1198.881606363229	49.406800052738	543.678007415760	
92	8.373000000000	950.046239351405	967.963445006599	545.436378293466	926.707184440292	948.827953558529	304.318119550345	985.280611102787	1425.533299075076	446.465826443065	887.806913136063	1480.217068038116	618.277907650454	856.968898304957	1544.610310983538	437.025738667409	913.184925245465	1494.743525870286	252.878898543897	833.294579848437	1182.018155209496	112.262916276418	946.693603008484	919.596840142042	84.985767139755	804.777714173644	1158.106257691902	752.240963348678	1007.695993610477	960.262744847727	688.856835843440	903.054265304867	721.124310047661	299.388382369616	808.010551783292	666.718490826291	266.881868912939	870.164688978676	593.379644642809	319.176879901304	828.172428427928	469.721894491991	322.082026288818	752.789126744560	386.991853064070	350.551905349033	656.518427522045	347.890913543648	282.301610651139	682.176243657354	282.845795591766	366.668594258765	481.592078579025	85.411992436033	378.038460061731	564.545174871563	45.807079231176	318.070112035866	669.450137270925	92.248432970208	354.278598720343	765.163494328285	44.028132464055	362.278282568680	999.342505241586	745.347248107514	566.244471217805	933.448801365351	655.167781131600	622.110616617783	1020.582265993340	620.718142751831	544.989678330034	1041.047639002056	523.565089773105	573.940775839157	1010.904185710303	418.467554698922	534.186696200001	944.972871881995	340.895535478967	612.422400121849	1006.143871410242	278.179213643635	529.211899419604	904.172441776296	51.343838153322	490.247896822695	982.616282339113	22.496073965488	563.648868833496	1086.858959215279	89.880451088094	543.030074203637	1191.759960129870	46.659103776752	542.047737258709	
93	8.390285714286	951.875113113021	967.652358981250	549.339556790957	928.411755279066	949.595925931493	308.311969470983	988.107395043414	1426.010403613990	450.554507686532	892.411421170263	1480.531771017288	623.189122101950	859.916714162886	1545.408969934657	442.148646795860	913.867147892821	1495.649546907513	257.477553725069	827.623615170566	1184.363162856157	117.942800416822	936.606817555556	920.693667552375	85.178892931172	813.815858489109	1157.099156275801	756.782861614481	1015.857174376325	959.408880418336	689.931835064446	907.375845290158	722.153426089589	301.555503021734	813.461271438957	666.817532918698	267.844265395581	876.626761497981	593.853832569651	319.629582374234	835.469603205025	467.212010336005	320.343392705058	757.306923760831	385.961709945806	348.959217514097	659.823409344561	349.742888218559	280.877783572015	683.453412186341	284.373492963186	365.674152166118	476.996187991847	93.290852473484	377.093306888136	558.483908237903	49.857717543513	317.692441744396	665.048696399524	92.568963756064	353.317432923371	757.754216226265	43.883076645439	362.262239307273	1001.442443498742	745.733335932546	570.440029893925	934.919128180440	655.336217746422	624.513341724476	1022.930000703063	621.066374220032	548.227397666895	1042.087403331881	523.063935640615	576.026280246274	1010.153449700784	418.063616635644	535.372925035756	943.640490250139	341.196602721889	613.828444717904	1002.920490119217	277.918695327129	529.499177719712	896.669617118363	51.638382275517	489.944046503192	974.960577985149	23.236899565882	563.596589872419	1079.904331939715	89.321139131744	541.692261598824	1184.414002114466	45.045355835160	541.173178663173	
